<svg xmlns="http://www.w3.org/2000/svg" width="24" height="24" viewBox="0 0 24 24"><defs><style>.a{fill:none;}.b{fill:#565a5e;}</style></defs><rect class="a" width="24" height="24"/><path class="b" d="M979,524.292h-9.586l3.95-4.154a1.091,1.091,0,0,0,0-1.487.965.965,0,0,0-1.414,0l-5.657,5.949a1.066,1.066,0,0,0-.216.342,1.1,1.1,0,0,0,0,.8,1.065,1.065,0,0,0,.216.342l5.657,5.949a.966.966,0,0,0,1.414,0,1.091,1.091,0,0,0,0-1.487l-3.95-4.154H979a1.053,1.053,0,0,0,0-2.1Z" transform="translate(-513.342 985) rotate(-90)"/></svg>