<svg xmlns="http://www.w3.org/2000/svg" width="16" height="17" viewBox="0 0 16 17"><defs><style>.a{fill:#565a5e;}</style></defs><path class="a" d="M678.049,412.412l-.569-.306.449-.459a4.947,4.947,0,0,0-.174-7.122,5.257,5.257,0,0,0-7.3.17,4.94,4.94,0,0,0,0,6.951l.45.46-.571.306a7.774,7.774,0,0,0-4.147,6.828.915.915,0,0,0,1.83,0,6.172,6.172,0,0,1,12.34,0,.915.915,0,0,0,1.83,0A7.775,7.775,0,0,0,678.049,412.412Zm-3.866-.972a3.254,3.254,0,1,1,3.336-3.252A3.3,3.3,0,0,1,674.183,411.44Z" transform="translate(-666.183 -403.132)"/></svg>