<svg xmlns="http://www.w3.org/2000/svg" width="24" height="24" viewBox="0 0 24 24"><defs><style>.a,.b{fill:none;}.b,.c{stroke:#565a5e;stroke-width:1.7px;}.b{stroke-miterlimit:10;}.c{fill:#fff;stroke-linecap:round;stroke-linejoin:round;}.d{stroke:none;}</style></defs><rect class="a" width="24" height="24"/><g transform="translate(-6 1)"><g class="b" transform="translate(8 2)"><circle class="d" cx="10" cy="10" r="10"/><circle class="a" cx="10" cy="10" r="9.15"/></g><path class="c" d="M-2191.346,734.027a2.154,2.154,0,0,1,2.206-1.2c1.794,0,1.794,1.2,1.794,1.2" transform="translate(2203.808 -722.696)"/><path class="c" d="M-2168.346,734.027a2.153,2.153,0,0,0-2.206-1.2c-1.794,0-1.794,1.2-1.794,1.2" transform="translate(2192.407 -722.696)"/><path class="c" d="M-2186,747a4.638,4.638,0,0,0,3.6,1.6,3.91,3.91,0,0,0,3.364-1.6" transform="translate(2200.6 -731.2)"/><path class="c" d="M-2180.6,712.5a2.93,2.93,0,0,1,2.6,3,1.784,1.784,0,0,1-2,2,1.817,1.817,0,0,1-2-1.6c0-1,1.234-1.9,2-1.133" transform="translate(2198.2 -712.5)"/></g></svg>