<svg xmlns="http://www.w3.org/2000/svg" width="24" height="24" viewBox="0 0 24 24"><defs><style>.a{fill:none;}.b{fill:#565a5e;}</style></defs><rect class="a" width="24" height="24"/><path class="b" d="M364.31,419.487l7.681-8.068a.975.975,0,0,0,.194-.308,1.014,1.014,0,0,0,0-.735.981.981,0,0,0-.2-.309l-7.675-8.06a.843.843,0,0,0-1.218,0,1,1,0,0,0,0,1.362l6.13,6.437H355.115a.947.947,0,0,0,.016,1.888h14.093l-6.133,6.441a1,1,0,0,0,0,1.358A.843.843,0,0,0,364.31,419.487Z" transform="translate(-351.254 -398.746)"/></svg>