<svg xmlns="http://www.w3.org/2000/svg" width="24" height="24" viewBox="0 0 24 24"><defs><style>.a{fill:none;}.b{fill:#565a5e;}</style></defs><rect class="a" width="24" height="24"/><path class="b" d="M486.766,419.514a.961.961,0,0,0,.307.193,1.01,1.01,0,0,0,.735,0,.948.948,0,0,0,.308-.2l8.056-7.676a.831.831,0,0,0,.046-1.177,1.014,1.014,0,0,0-1.4-.042l-6.433,6.13V402.616a.947.947,0,0,0-1.884.02v14.11l-6.437-6.133a.985.985,0,0,0-.674-.264,1,1,0,0,0-.681.267.829.829,0,0,0-.044,1.172Z" transform="translate(-475.44 -398.776)"/></svg>