<svg xmlns="http://www.w3.org/2000/svg" width="24" height="24" viewBox="0 0 24 24"><defs><style>.a{fill:none;}.b{fill:#565a5e;}</style></defs><rect class="a" width="24" height="24"/><path class="b" d="M556.877,552.969a2.522,2.522,0,0,1-3-1.2,2.523,2.523,0,0,0-.762.118,2.491,2.491,0,0,0-2.23-1.35,2.549,2.549,0,0,0-.5.049v-2.668a2.515,2.515,0,0,0-2.512-2.438h0a2.479,2.479,0,0,0-2.5,2.442v11.715a7,7,0,0,0,14,0v-.4c0-.015,0-.029,0-.044v-3.782A2.479,2.479,0,0,0,556.877,552.969Zm.96,6.655a5.465,5.465,0,0,1-10.928.01V547.923a.953.953,0,0,1,.963-.941.972.972,0,0,1,.977.941v8.805a.535.535,0,0,0,1.071,0v-3.749a.963.963,0,0,1,1.926,0v3.746a.535.535,0,0,0,1.069,0v-2.515a.967.967,0,0,1,1.926,0v2.511a.535.535,0,0,0,1.069,0V555.4a.964.964,0,0,1,1.927,0Z" transform="translate(-540.374 -543.477)"/></svg>