<svg xmlns="http://www.w3.org/2000/svg" width="24" height="24" viewBox="0 0 24 24"><defs><style>.a{fill:none;}.b{fill:#565a5e;}</style></defs><rect class="a" width="24" height="24"/><path class="b" d="M109.217-90.957a10,10,0,0,0-10-10,10,10,0,0,0-10,10,10,10,0,0,0,8.437,9.878v-6.988H95.115v-2.891h2.539v-2.2a3.529,3.529,0,0,1,3.777-3.891,15.377,15.377,0,0,1,2.238.2v2.461h-1.261a1.445,1.445,0,0,0-1.63,1.562v1.876h2.773l-.443,2.891h-2.33v6.988A10,10,0,0,0,109.217-90.957Z" transform="translate(-87.217 102.957)"/></svg>