<svg xmlns="http://www.w3.org/2000/svg" width="24" height="24" viewBox="0 0 24 24"><defs><style>.a{fill:none;}.b{fill:#565a5e;}</style></defs><rect class="a" width="24" height="24"/><path class="b" d="M1571.882,425.811h1.347a3.1,3.1,0,0,0,5.845,0h12.885a.937.937,0,1,0,0-1.874h-12.885a3.1,3.1,0,0,0-5.845,0h-1.347a.937.937,0,1,0,0,1.874Zm4.269-2.559a1.623,1.623,0,1,1-1.664,1.622A1.645,1.645,0,0,1,1576.151,423.252Zm15.808,7.173h-1.347a3.1,3.1,0,0,0-5.845,0h-12.885a.937.937,0,1,0,0,1.874h12.885a3.1,3.1,0,0,0,5.845,0h1.347a.937.937,0,1,0,0-1.874Zm-4.269,2.559a1.622,1.622,0,1,1,1.664-1.622A1.645,1.645,0,0,1,1587.689,432.984Zm4.269,3.929h-7.116a3.1,3.1,0,0,0-5.845,0h-7.116a.937.937,0,1,0,0,1.874H1579a3.1,3.1,0,0,0,5.845,0h7.116a.937.937,0,1,0,0-1.874Zm-10.039,2.559a1.623,1.623,0,1,1,1.664-1.622A1.645,1.645,0,0,1,1581.92,439.472Z" transform="translate(-1569.92 -418.862)"/></svg>