<svg xmlns="http://www.w3.org/2000/svg" width="24" height="24" viewBox="0 0 24 24"><defs><style>.a{fill:none;}.b{fill:#565a5e;}</style></defs><rect class="a" width="24" height="24"/><path class="b" d="M861.83,439.122v-6.9a.354.354,0,0,1,.257-.335,1.793,1.793,0,0,0,1.295-1.705v-1.542a1.847,1.847,0,0,0-1.882-1.8h-2.436a.375.375,0,0,1-.341-.21.341.341,0,0,1,.065-.38,2.991,2.991,0,0,0,.841-2.083,2.769,2.769,0,0,0-2.837-2.684h0l-.125,0a3.073,3.073,0,0,0-2.027.746.386.386,0,0,1-.5,0,3.121,3.121,0,0,0-2.02-.748,2.976,2.976,0,0,0-2.055.7,2.611,2.611,0,0,0-.92,1.862l0,.118a3,3,0,0,0,.841,2.085.337.337,0,0,1,.065.379.375.375,0,0,1-.341.21h-2.437a1.848,1.848,0,0,0-1.88,1.795v1.543a1.793,1.793,0,0,0,1.3,1.705.355.355,0,0,1,.257.335v6.88a2.294,2.294,0,0,0,.7,1.676,2.521,2.521,0,0,0,1.735.709H859.4A2.411,2.411,0,0,0,861.83,439.122Zm-8.16.641a.363.363,0,0,1-.373.353H849.38a1.056,1.056,0,0,1-.73-.3.94.94,0,0,1-.284-.694v-6.788a.364.364,0,0,1,.373-.353H853.3a.363.363,0,0,1,.373.353Zm0-9.509a.363.363,0,0,1-.373.353h-6.032a.441.441,0,0,1-.45-.408l.079-1.647a.364.364,0,0,1,.372-.337H853.3a.363.363,0,0,1,.373.353Zm0-4.216a.345.345,0,0,1-.141.277.386.386,0,0,1-.232.076.427.427,0,0,1-.085-.008q-.437-.1-.859-.219c-.5-.154-1.788-.81-1.788-1.992a1.387,1.387,0,0,1,1.455-1.319c.047,0,.094,0,.141.01a1.516,1.516,0,0,1,1.508,1.456Zm1.43-1.712a1.534,1.534,0,0,1,1.551-1.466,1.44,1.44,0,0,1,1.013.287,1.33,1.33,0,0,1,.532.906c0,.009.008.1.008.11-.007,1.153-1.2,1.8-1.724,1.983a.5.5,0,0,1-.057.022c-.284.082-.572.151-.86.219a.416.416,0,0,1-.09.01.388.388,0,0,1-.23-.075.349.349,0,0,1-.143-.278Zm-.006,4.247a.346.346,0,0,1,.11-.251.461.461,0,0,1,.267-.1l6.109.068a.364.364,0,0,1,.369.353v1.541a.347.347,0,0,1-.112.253l-.077.071a.385.385,0,0,1-.261.1h-6.033a.363.363,0,0,1-.373-.353Zm5.3,10.548a.933.933,0,0,1-.284.687,1.04,1.04,0,0,1-.667.3.372.372,0,0,1-.057,0h-3.923a.363.363,0,0,1-.373-.353V432.33a.363.363,0,0,1,.373-.353h4.558a.363.363,0,0,1,.373.353Z" transform="translate(-842.381 -419.487)"/></svg>