<svg xmlns="http://www.w3.org/2000/svg" width="20" height="20.003" viewBox="0 0 20 20.003"><defs><style>.a{fill:#565a5e;}</style></defs><path class="a" d="M1289.682,551.651h0a10,10,0,1,0-1.3,19.958c.222.015.445.022.666.022a10,10,0,0,0,9.965-9.349,10.31,10.31,0,0,0,0-1.306A10.043,10.043,0,0,0,1289.682,551.651Zm-6.06,10.823a17.163,17.163,0,0,0,.51,3.545,7.825,7.825,0,0,0-1.665.714,8.316,8.316,0,0,1-1.712-4.259Zm.509-5.223a17.222,17.222,0,0,0-.508,3.538h-2.866a8.321,8.321,0,0,1,1.694-4.24A8.147,8.147,0,0,0,1284.131,557.251Zm.5-1.609a7.021,7.021,0,0,1-.963-.365,8.3,8.3,0,0,1,1.688-1.1A8.157,8.157,0,0,0,1284.635,555.642Zm3.552,2.235v2.911h-2.873a15.585,15.585,0,0,1,.478-3.162A18.665,18.665,0,0,0,1288.186,557.878Zm-1.852-1.87a5.111,5.111,0,0,1,1.851-2.446v2.627A17.254,17.254,0,0,1,1286.335,556.007Zm1.851,6.467v2.911a18.035,18.035,0,0,0-2.4.254,15.5,15.5,0,0,1-.479-3.167Zm-3.548,5.155a8.516,8.516,0,0,0,.726,1.461,8.31,8.31,0,0,1-1.675-1.093A6.488,6.488,0,0,1,1284.638,567.629Zm3.548-.556V569.7a5.094,5.094,0,0,1-1.849-2.445A16.862,16.862,0,0,1,1288.185,567.073Zm6.244-6.283a17.327,17.327,0,0,0-.507-3.539,8.137,8.137,0,0,0,1.675-.7,8.32,8.32,0,0,1,1.694,4.24Zm-2.71,6.468a5.107,5.107,0,0,1-1.849,2.444v-2.628A16.753,16.753,0,0,1,1291.72,567.258Zm-1.849-6.469v-2.912a18.674,18.674,0,0,0,2.4-.25,15.55,15.55,0,0,1,.479,3.162Zm3.552-5.148a8.557,8.557,0,0,0-.73-1.47,8.319,8.319,0,0,1,1.691,1.1A6.955,6.955,0,0,1,1293.422,555.641Zm-.677,6.833a15.567,15.567,0,0,1-.48,3.167,18.056,18.056,0,0,0-2.4-.254v-2.912ZM1294.37,568a8.354,8.354,0,0,1-1.676,1.094,8.562,8.562,0,0,0,.727-1.462A6.73,6.73,0,0,1,1294.37,568Zm-4.5-11.813v-2.627a5.106,5.106,0,0,1,1.849,2.448A17.214,17.214,0,0,1,1289.87,556.188Zm4.053,9.831a17.258,17.258,0,0,0,.51-3.545h2.867a8.319,8.319,0,0,1-1.71,4.259A7.9,7.9,0,0,0,1293.923,566.019Z" transform="translate(-1279.029 -551.628)"/></svg>