<svg xmlns="http://www.w3.org/2000/svg" width="24" height="24" viewBox="0 0 24 24"><defs><style>.a{fill:none;}.b{fill:#565a5e;}</style></defs><rect class="a" width="24" height="24"/><path class="b" d="M1219.531,563.311a.9.9,0,0,0-.308-.616l-.013-.011-10.57-8.874c.026.019-.021-.005-.053-.02a1.527,1.527,0,0,0-.218-.122,1.058,1.058,0,0,0-.154-.04.811.811,0,0,0-.35,0,.921.921,0,0,0-.178.047,1.1,1.1,0,0,0-.154.085l-.1.052-10.57,8.874a.9.9,0,0,0-.117,1.267.949.949,0,0,0,1.332.117l2.594-2.179V572.7a.893.893,0,0,0,.927.91h12.874a.979.979,0,0,0,.656-.264.909.909,0,0,0,.275-.647V561.889l2.6,2.181a.943.943,0,0,0,1.317-.107A.891.891,0,0,0,1219.531,563.311Zm-5.994,8.472h-11.006V560.319l5.5-4.619,5.5,4.619Z" transform="translate(-1195.534 -551.608)"/></svg>