<svg xmlns="http://www.w3.org/2000/svg" width="20" height="20" viewBox="0 0 20 20"><defs><style>.a{fill:#fff;}</style></defs><path class="a" d="M298.505,568.825c-.832,0-1.511-.012-2.145-.036-.238,0-.482-.014-.716-.02a10.89,10.89,0,0,1-2.5-.246,5.088,5.088,0,0,1-4.016-4.1,12.355,12.355,0,0,1-.23-2.358c-.022-.744-.022-1.5-.022-2.242v-1.858c0-.724-.016-1.472.018-2.2,0-.158.014-.316.02-.474a9.575,9.575,0,0,1,.332-2.536,5.129,5.129,0,0,1,4.056-3.682,11.7,11.7,0,0,1,2.371-.206h.374c.975-.032,1.945-.044,2.889-.044s1.841.012,2.735.034h.388a8.715,8.715,0,0,1,3.454.552,5.148,5.148,0,0,1,3.154,4.36,47.015,47.015,0,0,1,.168,6.3c-.01.6-.022,1.2-.026,1.8a8.78,8.78,0,0,1-.542,3.614,5.121,5.121,0,0,1-3.894,3.086,16.9,16.9,0,0,1-3.262.236H300.1C299.573,568.825,299.035,568.825,298.505,568.825Zm.586-18.164h-3.562a9.622,9.622,0,0,0-1.727.164,3.336,3.336,0,0,0-2.893,2.75,8.169,8.169,0,0,0-.2,1.684c-.01,1.33-.012,2.684-.012,4v2.294a12.883,12.883,0,0,0,.168,2.354,3.329,3.329,0,0,0,2.3,2.762,6.857,6.857,0,0,0,2.217.318c.94,0,1.937.01,3.236.01h3.528a10.216,10.216,0,0,0,1.727-.16,3.331,3.331,0,0,0,2.947-2.826,9.386,9.386,0,0,0,.182-1.646c.018-.818.016-1.62.012-2.638v-1.5c-.01-.33,0-.716,0-1.126a20.085,20.085,0,0,0-.15-3.36,3.437,3.437,0,0,0-2.5-2.82,8.406,8.406,0,0,0-2.071-.256C301.354,550.663,300.336,550.661,299.091,550.661Zm-.108,13.254H298.7a4.963,4.963,0,0,1-3.49-1.464A5.153,5.153,0,0,1,298.7,553.7h.173a5.036,5.036,0,0,1,5.1,4.967c0,.058,0,.117,0,.175a5,5,0,0,1-4.921,5.076h-.069Zm-.112-8.416h0a3.35,3.35,0,0,0-3.336,3.26,3.4,3.4,0,0,0,.982,2.436,3.278,3.278,0,0,0,2.341.962,3.328,3.328,0,0,0,.014-6.656Zm5.3-.8a1.17,1.17,0,0,1-.826-.364,1.228,1.228,0,0,1-.362-.868,1.2,1.2,0,0,1,2.041-.816,1.224,1.224,0,0,1,.332.88A1.165,1.165,0,0,1,304.2,554.7h-.026Z" transform="translate(-288.872 -548.825)"/></svg>