<svg xmlns="http://www.w3.org/2000/svg" width="18" height="21" viewBox="0 0 18 21"><defs><style>.a{fill:#565a5e;}</style></defs><path class="a" d="M611.658,406.072a2.26,2.26,0,1,0,2.229,2.261A2.247,2.247,0,0,0,611.658,406.072Zm.058-5.745H611.6a9.017,9.017,0,0,0-8.94,8.992c0,3.885,2.353,7.529,7.407,11.463a2.6,2.6,0,0,0,3.185,0c5.054-3.935,7.407-7.578,7.407-11.464A9.019,9.019,0,0,0,611.716,400.327Zm.47,19.042,0,0a.863.863,0,0,1-1.05,0c-4.526-3.522-6.726-6.813-6.726-10.061a7.252,7.252,0,1,1,14.5,0C618.911,412.556,616.711,415.846,612.186,419.369Z" transform="translate(-602.658 -400.327)"/></svg>