<svg xmlns="http://www.w3.org/2000/svg" width="24" height="24" viewBox="0 0 24 24"><defs><style>.a{fill:none;}.b{fill:#565a5e;}</style></defs><rect class="a" width="24" height="24"/><path class="b" d="M805.692,555.357a.841.841,0,0,0-.076-.169c-.02-.047-.032-.074-.045-.1a.14.14,0,0,1-.056-.043,1.138,1.138,0,0,0-.3-.22.91.91,0,0,0-.168-.061.821.821,0,0,0-.2-.037.745.745,0,0,0-.1-.02H786.987a.589.589,0,0,0-.066.015,1,1,0,0,0-.213.039,1.053,1.053,0,0,0-.179.065,1.193,1.193,0,0,0-.147.093.88.88,0,0,0-.146.132.362.362,0,0,1-.05.046l-.02.027a.281.281,0,0,1-.031.068.925.925,0,0,0-.075.166.825.825,0,0,0-.038.177c-.011.049-.018.077-.022.108v10.4a.955.955,0,0,0,.954.918h17.839a.956.956,0,0,0,.957-.922V555.625c0-.013-.009-.042-.017-.07l0-.022A.731.731,0,0,0,805.692,555.357Zm-4.08,1.179-5.736,3.7-.067-.043-5.669-3.654Zm2.167,8.584h-15.8v-7.75l7.341,4.732a1.054,1.054,0,0,0,1.123,0l7.341-4.732Z" transform="translate(-784 -548.708)"/></svg>