<svg xmlns="http://www.w3.org/2000/svg" width="28.992" height="17" viewBox="0 0 28.992 17"><defs><style>.a{fill:#565a5e;}</style></defs><path class="a" d="M621.748,565.59l-4.985-4.987.208-.313a6.006,6.006,0,1,0-1.7,1.7l.314-.208,4.984,4.987a.849.849,0,0,0,1.173,0,.828.828,0,0,0,0-1.175Zm-9.769-4.27a4.329,4.329,0,1,1,4.328-4.329A4.334,4.334,0,0,1,611.979,561.32ZM594,554h9a1,1,0,0,0,0-2h-9a1,1,0,0,0,0,2Zm0,7h9a1,1,0,0,0,0-2h-9a1,1,0,0,0,0,2Zm18,5H594a1,1,0,0,0,0,2h18a1,1,0,0,0,0-2Z" transform="translate(-593 -551)"/></svg>