<svg xmlns="http://www.w3.org/2000/svg" width="20" height="17.556" viewBox="0 0 20 17.556"><defs><style>.a{fill:#565a5e;}</style></defs><path class="a" d="M1140.071,554.843l1.414-1.414a1,1,0,0,0-1.414-1.414l-1.73,1.73A11.822,11.822,0,0,0,1133,552.5c-5.523,0-10,3.582-10,8a7.276,7.276,0,0,0,2.929,5.657l-1.414,1.414a1,1,0,0,0,1.414,1.414l1.73-1.73A11.822,11.822,0,0,0,1133,568.5c5.523,0,10-3.582,10-8A7.276,7.276,0,0,0,1140.071,554.843ZM1125,560.5c0-3.308,3.589-6,8-6a10.108,10.108,0,0,1,3.845.741l-2.583,2.583a2.91,2.91,0,0,0-1.118-.254c-.053,0-.107,0-.16,0a3.043,3.043,0,0,0-.874.129,1.446,1.446,0,0,1,.876,1.4l-1.391,1.392a1.5,1.5,0,0,1-.715-.12,1.483,1.483,0,0,1-.75-.733,2.9,2.9,0,0,0,.176,2.141l-2.961,2.961A5.359,5.359,0,0,1,1125,560.5Zm8,6a10.108,10.108,0,0,1-3.845-.741l2.6-2.6a2.67,2.67,0,0,0,.306.129l.048.014a3.069,3.069,0,0,0,.883.13,2.931,2.931,0,0,0,3.005-2.855,2.886,2.886,0,0,0-.307-1.353l2.963-2.962A5.359,5.359,0,0,1,1141,560.5C1141,563.808,1137.411,566.5,1133,566.5Z" transform="translate(-1123 -551.722)"/></svg>