<svg xmlns="http://www.w3.org/2000/svg" width="24" height="24" viewBox="0 0 24 24"><defs><style>.a{fill:none;}.b{fill:#565a5e;}</style></defs><rect class="a" width="24" height="24"/><path class="b" d="M920.286,530.432a3.382,3.382,0,0,0-2.393-.983h-.021a3.373,3.373,0,0,0-3.015,1.831,7.911,7.911,0,0,0-.673,5.754c1.167,4.629,7.528,10.994,12.154,12.162a8.142,8.142,0,0,0,2.019.254,8.012,8.012,0,0,0,3.742-.94,3.417,3.417,0,0,0,1.426-4.616l0,0a3.346,3.346,0,0,0-.593-.809l-1.744-1.747a3.419,3.419,0,0,0-3.78-.716,4.932,4.932,0,0,0-1.143.692l-.243.2-.285-.134a7.663,7.663,0,0,1-3.743-3.745l-.136-.282.2-.245a4.866,4.866,0,0,0,.7-1.152,3.39,3.39,0,0,0-.724-3.775Zm5.206,12.741a1.615,1.615,0,0,0,1.675-.331,3.13,3.13,0,0,1,.949-.626,1.648,1.648,0,0,1,1.832.359l1.732,1.739a1.65,1.65,0,0,1,.471,1.425,1.677,1.677,0,0,1-.794,1.178l-.08.047a6.157,6.157,0,0,1-4.516.535c-3.983-1-9.884-6.909-10.886-10.9a6.125,6.125,0,0,1,.533-4.505,1.674,1.674,0,0,1,1.232-.875,1.643,1.643,0,0,1,1.425.47l1.737,1.738a1.654,1.654,0,0,1,.357,1.832,3.085,3.085,0,0,1-.634.95,1.6,1.6,0,0,0-.325,1.672A9.157,9.157,0,0,0,925.492,543.173Z" transform="translate(-911.922 -527.449)"/></svg>