<svg xmlns="http://www.w3.org/2000/svg" width="20" height="20" viewBox="0 0 20 20"><defs><style>.a{fill:#565a5e;}</style></defs><path class="a" d="M786.825,547.329a3.449,3.449,0,0,0-.608-.828h0l-1.723-1.724a3.477,3.477,0,0,0-3.871-.734,4.923,4.923,0,0,0-1.158.7l-.179.147-.209-.1a7.432,7.432,0,0,1-3.637-3.636l-.1-.209.146-.18a4.9,4.9,0,0,0,.706-1.168,3.491,3.491,0,0,0-.741-3.866l-1.721-1.723A3.483,3.483,0,0,0,771.268,533h-.009a3.466,3.466,0,0,0-3.089,1.875,7.958,7.958,0,0,0-.675,5.772c1.161,4.607,7.49,10.937,12.093,12.1a8.18,8.18,0,0,0,2.025.255,8.015,8.015,0,0,0,3.753-.942,3.5,3.5,0,0,0,1.46-4.729Zm-1.591,1.864a1.531,1.531,0,0,1-.725,1.075l-.078.046a5.945,5.945,0,0,1-2.823.714,6.02,6.02,0,0,1-1.542-.2c-3.9-.981-9.679-6.766-10.661-10.672a5.947,5.947,0,0,1,.515-4.36,1.525,1.525,0,0,1,1.125-.8,1.5,1.5,0,0,1,1.3.429l1.716,1.716a1.5,1.5,0,0,1,.326,1.671,2.922,2.922,0,0,1-.6.9,1.719,1.719,0,0,0-.349,1.783,9.159,9.159,0,0,0,5.3,5.3,1.714,1.714,0,0,0,1.785-.354,2.974,2.974,0,0,1,.9-.593,1.51,1.51,0,0,1,1.671.328l1.71,1.717A1.5,1.5,0,0,1,785.234,549.193Z" transform="translate(-767.232 -533)"/></svg>