<svg xmlns="http://www.w3.org/2000/svg" width="28" height="19" viewBox="0 0 28 19"><defs><style>.a{fill:#565a5e;}</style></defs><path class="a" d="M1712.225,439.61V429.335l6.019-1.981,2.2-.787v-.593a.922.922,0,0,0-.031-.2l-.1-.28c.008.027-.005.008-.027-.024l-.065-.087c-.011-.011-.045-.044-.08-.075l-.123-.067a.707.707,0,0,0-.167-.065l-10.332-2.546a.7.7,0,0,0-.368.018l-7.976,2.587-.154.116-.13.193a.617.617,0,0,0-.035.075l-.042,12.246a1.018,1.018,0,0,0,.786,1.031l9.685,2.694a.663.663,0,0,0,.174.024l.177-.01h0c-.028,0,.018-.012.062-.027l7.878-2.664a1.04,1.04,0,0,0,.863-1.035v-.961l-1.9.564Zm-1.528.057-8.356-2.332V427.081l8.356,2.286Zm.749-11.859-6.911-1.886,4.868-1.577,7.205,1.773Zm17.312,4.877,0,0a.726.726,0,0,0-.162-.239l-3.643-3.534a.819.819,0,0,0-1.133,0,.726.726,0,0,0-.022,1.022l2.365,2.286h-8.443a.769.769,0,0,0-.8.722.749.749,0,0,0,.721.779h8.51l-2.34,2.262a.726.726,0,0,0-.024,1.024.827.827,0,0,0,1.158.023l3.642-3.533a.782.782,0,0,0,.169-.246A.719.719,0,0,0,1728.758,432.685Z" transform="translate(-1700.816 -422.611)"/></svg>