<svg xmlns="http://www.w3.org/2000/svg" width="24" height="24" viewBox="0 0 24 24"><defs><style>.a{fill:none;}.b{fill:#565a5e;}</style></defs><rect class="a" width="24" height="24"/><path class="b" d="M243.609,411.3a1.215,1.215,0,0,0,.35.849l4.908,4.981a1.214,1.214,0,0,0,.869.365h.04a1.183,1.183,0,0,0,.867-.4l8.641-9.552a1.235,1.235,0,0,0,.322-.9,1.221,1.221,0,0,0-2.117-.754l-7.784,8.612-4.019-4.077a1.209,1.209,0,0,0-1.731,0A1.233,1.233,0,0,0,243.609,411.3Z" transform="translate(-239.609 -399.498)"/></svg>