<svg xmlns="http://www.w3.org/2000/svg" width="24" height="24" viewBox="0 0 24 24"><defs><style>.a{fill:none;}.b{fill:#565a5e;}</style></defs><rect class="a" width="24" height="24"/><path class="b" d="M986.806,435.707a.936.936,0,1,0,.936.937A.938.938,0,0,0,986.806,435.707Zm0-9.063a.937.937,0,0,0-.937.936v4.532a.936.936,0,1,0,1.873,0V427.58A.937.937,0,0,0,986.806,426.644Zm0-4.532a10,10,0,1,0,10,10A10.011,10.011,0,0,0,986.806,422.112Zm0,18.127a8.127,8.127,0,1,1,8.126-8.128h0A8.136,8.136,0,0,1,986.806,440.239Z" transform="translate(-974.806 -420.112)"/></svg>