<svg xmlns="http://www.w3.org/2000/svg" width="20.999" height="15.002" viewBox="0 0 20.999 15.002"><defs><style>.a{fill:#565a5e;stroke:rgba(0,0,0,0);stroke-miterlimit:10;}</style></defs><g transform="translate(0.5 0.5)"><path class="a" d="M9154,2590c-.062,0-6.271,0-7.814-.419a2.511,2.511,0,0,1-1.769-1.769,28.056,28.056,0,0,1,0-9.627,2.511,2.511,0,0,1,1.769-1.769c1.544-.414,7.752-.419,7.814-.419s6.271,0,7.813.419a2.5,2.5,0,0,1,1.769,1.769,27.927,27.927,0,0,1,0,9.627,2.5,2.5,0,0,1-1.769,1.769C9160.271,2590,9154.063,2590,9154,2590Zm-2.047-9.957h0v5.911l5.227-2.955-5.227-2.955Z" transform="translate(-9144.001 -2575.999)"/></g></svg>