<svg xmlns="http://www.w3.org/2000/svg" width="24" height="24" viewBox="0 0 24 24"><defs><style>.a{fill:none;}.b{fill:#565a5e;}</style></defs><rect class="a" width="24" height="24"/><path class="b" d="M869,545a2,2,0,1,0,2,2A2,2,0,0,0,869,545Zm0,8a2,2,0,1,0,2,2A2,2,0,0,0,869,553Zm0,8a2,2,0,1,0,2,2A2,2,0,0,0,869,561Zm8,0a2,2,0,1,0,2,2A2,2,0,0,0,877,561Zm0-8a2,2,0,1,0,2,2A2,2,0,0,0,877,553Zm0-8a2,2,0,1,0,2,2A2,2,0,0,0,877,545Zm8,4a2,2,0,1,0-2-2A2,2,0,0,0,885,549Zm0,4a2,2,0,1,0,2,2A2,2,0,0,0,885,553Zm0,8a2,2,0,1,0,2,2A2,2,0,0,0,885,561Z" transform="translate(-865 -543)"/></svg>