<svg xmlns="http://www.w3.org/2000/svg" width="20" height="20" viewBox="0 0 20 20"><defs><style>.a{fill:#565a5e;}</style></defs><path class="a" d="M869,545a2,2,0,1,0,2,2A2,2,0,0,0,869,545Zm0,8a2,2,0,1,0,2,2A2,2,0,0,0,869,553Zm0,8a2,2,0,1,0,2,2A2,2,0,0,0,869,561Zm8,0a2,2,0,1,0,2,2A2,2,0,0,0,877,561Zm0-8a2,2,0,1,0,2,2A2,2,0,0,0,877,553Zm0-8a2,2,0,1,0,2,2A2,2,0,0,0,877,545Zm8,4a2,2,0,1,0-2-2A2,2,0,0,0,885,549Zm0,4a2,2,0,1,0,2,2A2,2,0,0,0,885,553Zm0,8a2,2,0,1,0,2,2A2,2,0,0,0,885,561Z" transform="translate(-867 -545)"/></svg>