<svg xmlns="http://www.w3.org/2000/svg" width="18" height="18" viewBox="0 0 18 18"><defs><style>.a{fill:#565a5e;}</style></defs><path class="a" d="M310.106,410.667a.943.943,0,0,0-.858-.871h-14.11l6.133-6.437a1,1,0,0,0,0-1.356.831.831,0,0,0-1.172-.044l-7.725,8.105a.961.961,0,0,0-.193.307,1.007,1.007,0,0,0,0,.734.963.963,0,0,0,.2.31l7.675,8.055a.831.831,0,0,0,.582.268.846.846,0,0,0,.6-.222,1.013,1.013,0,0,0,.042-1.4l-6.13-6.433h14.131A.944.944,0,0,0,310.106,410.667Z" transform="translate(-292.109 -401.739)"/></svg>