<svg xmlns="http://www.w3.org/2000/svg" width="18.7" height="22" viewBox="0 0 18.7 22"><defs><style>.a{fill:#fff;}</style></defs><path class="a" d="M1415.379,571.47a1.581,1.581,0,1,0,1.574,1.581A1.577,1.577,0,0,0,1415.379,571.47Zm-7.448,0a1.577,1.577,0,0,0-1.574,1.581h0a1.578,1.578,0,0,0,1.569,1.581h0a1.581,1.581,0,0,0,0-3.161Zm6.3-15.143-6.386.024v-1.429a2.29,2.29,0,0,0-2.281-2.291h-2.092a.944.944,0,0,0,0,1.889h2.091a.4.4,0,0,1,.4.39v13.181a2.289,2.289,0,0,0,2.281,2.292h5.861a7.259,7.259,0,0,0,5.126-2.17,6.988,6.988,0,0,0-5-11.887Zm3.662,10.559,0,0a5.368,5.368,0,0,1-3.789,1.607h-5.858a.4.4,0,0,1-.4-.4V558.24l6.392-.024a5.122,5.122,0,0,1,5.115,5.039A5.053,5.053,0,0,1,1417.889,566.886Z" transform="translate(-1402.53 -552.631)"/></svg>