<svg xmlns="http://www.w3.org/2000/svg" width="24" height="24" viewBox="0 0 24 24"><defs><style>.a{fill:none;}.b{fill:#565a5e;}</style></defs><rect class="a" width="24" height="24"/><path class="b" d="M545.682,422.014a9.959,9.959,0,0,0,13.516-4.22,10.139,10.139,0,0,0-.228-9.853l-.092-.158a9.979,9.979,0,0,0-8.4-4.589,9.87,9.87,0,0,0-5.28,1.531,10.211,10.211,0,0,0-3.544,13.308l.076.146-1.319,3.768a.964.964,0,0,0-.051.312.939.939,0,0,0,.932.935h.009a.872.872,0,0,0,.256-.038l3.985-1.215Zm-2.9-1.176.83-2.389a.936.936,0,0,0-.076-.892,8.458,8.458,0,0,1-.126-8.807,8.163,8.163,0,0,1,14.949,2.348,8.3,8.3,0,0,1-.963,6.259,8.173,8.173,0,0,1-7.007,3.97,8.063,8.063,0,0,1-4.231-1.2.912.912,0,0,0-.488-.146.667.667,0,0,0-.224.047Z" transform="translate(-538.366 -401.195)"/></svg>