<svg xmlns="http://www.w3.org/2000/svg" width="15" height="23" viewBox="0 0 15 23"><defs><style>.a{fill:#565a5e;}</style></defs><path class="a" d="M557.7,553.682a2.641,2.641,0,0,0-.835.135,2.7,2.7,0,0,0-2.378-1.452,2.665,2.665,0,0,1-3.206-1.35,2.67,2.67,0,0,0-.534.054v-2.922a2.723,2.723,0,0,0-2.692-2.67h0a2.685,2.685,0,0,0-2.677,2.674v12.831a7.5,7.5,0,0,0,15,0v-.433c0-.016,0-.032,0-.048v-4.142A2.685,2.685,0,0,0,557.7,553.682Zm1.029,7.289a5.854,5.854,0,0,1-11.708.011V548.156a1.032,1.032,0,0,1,1.032-1.031,1.052,1.052,0,0,1,1.047,1.031V557.8a.573.573,0,0,0,1.147,0v-4.106a1.032,1.032,0,0,1,2.063,0v4.1a.573.573,0,0,0,1.146,0v-2.754a1.034,1.034,0,0,1,2.063,0v2.75a.573.573,0,0,0,1.146,0v-1.444a1.032,1.032,0,0,1,2.064,0Z" transform="translate(-545.374 -545.477)"/></svg>