<svg xmlns="http://www.w3.org/2000/svg" width="24" height="24" viewBox="0 0 24 24"><defs><style>.a{fill:none;}.b{fill:#565a5e;}</style></defs><rect class="a" width="24" height="24"/><path class="b" d="M1781.046,422.112a10,10,0,1,0,10,10A10.011,10.011,0,0,0,1781.046,422.112Zm0,18.127h0a8.127,8.127,0,1,1,8.126-8.127A8.137,8.137,0,0,1,1781.046,440.239Zm.936-8.182v-4.216a.937.937,0,0,0-1.874,0v4.532c0,.012.007.023.008.035a.927.927,0,0,0,.266.7l1.79,1.79a.937.937,0,0,0,1.325-1.325Z" transform="translate(-1769.046 -420.112)"/></svg>