<svg xmlns="http://www.w3.org/2000/svg" width="24" height="24" viewBox="0 0 24 24"><defs><style>.a{fill:none;}.b{fill:#565a5e;}</style></defs><rect class="a" width="24" height="24"/><path class="b" d="M582.593,578.226a5.7,5.7,0,0,0-4.771-2.578h-3.131v-.115a2.6,2.6,0,0,0-2.585-2.606H562a2.6,2.6,0,0,0-2.586,2.606v8.849A2.6,2.6,0,0,0,562,586.987h.168a3.247,3.247,0,0,0,6.315,0h6.439a3.246,3.246,0,0,0,6.313,0h.338a1.855,1.855,0,0,0,1.841-1.855v-4.215A4.954,4.954,0,0,0,582.593,578.226Zm-4.518,4.715a3.229,3.229,0,0,0-3.18,2.656h-.487a2.617,2.617,0,0,0,.3-1.214v-7.329h1.638V579.8a1.826,1.826,0,0,0,1.811,1.828h3.874l-.006,3.516a.447.447,0,0,1-.443.45h-.3a3.23,3.23,0,0,0-3.181-2.655Zm1.32,4.59a1.843,1.843,0,0,1-1.315.552h0a1.88,1.88,0,0,1-1.318-3.2,1.84,1.84,0,0,1,1.315-.552h.006a1.88,1.88,0,0,1,1.315,3.2Zm2.033-8.537a3.482,3.482,0,0,1,.517,1.228h-3.782a.427.427,0,0,1-.418-.423l-.012-2.727h.107A4.317,4.317,0,0,1,581.427,578.994Zm-16.106,3.947a3.231,3.231,0,0,0-3.181,2.656H562a1.2,1.2,0,0,1-1.2-1.206v-8.858a1.208,1.208,0,0,1,1.2-1.2h10.1a1.208,1.208,0,0,1,1.2,1.2V584.4a1.2,1.2,0,0,1-1.2,1.2h-3.587a3.23,3.23,0,0,0-3.181-2.655Zm-.084,5.158a1.844,1.844,0,0,1-1.229-.542A1.889,1.889,0,0,1,564,584.9a1.846,1.846,0,0,1,1.314-.556h.017a1.868,1.868,0,0,1,0,3.736Z" transform="translate(-559.419 -568.927)"/></svg>