<svg xmlns="http://www.w3.org/2000/svg" width="24" height="24" viewBox="0 0 24 24"><defs><style>.a{fill:#565a5e;}.b{fill:none;}</style></defs><path class="a" d="M957.258,567.3a1.98,1.98,0,0,0,.792.195h.02a1.85,1.85,0,0,0,1.169-.421l2.679-2.269a1.617,1.617,0,0,0,.591-1.238v-5.862l5.09-7.223a.873.873,0,0,0,.061-.1,1.867,1.867,0,0,0,.029-1.881,1.961,1.961,0,0,0-1.749-1.007H952.928a2.013,2.013,0,0,0-1.789,1.082,1.853,1.853,0,0,0,.036,1.782l.069.127.01.014,5.091,7.226v8.118A1.636,1.636,0,0,0,957.258,567.3ZM952.871,549.4h13.112l-5.4,7.679a.3.3,0,0,0-.054.16v6.211l-2.21,1.856V557.22a.158.158,0,0,0-.035-.112Z" transform="translate(-946.929 -545.499)"/><rect class="b" width="24" height="24"/></svg>