<svg xmlns="http://www.w3.org/2000/svg" width="20" height="17" viewBox="0 0 20 17"><defs><style>.a{fill:#565a5e;}</style></defs><path class="a" d="M655.833,771.5a4.794,4.794,0,0,0,.6-5.253,6.5,6.5,0,0,0-5.711-3.322h-.042l-.362,0a5.907,5.907,0,0,0-3.1,1.058l-.267.189-.268-.189a5.878,5.878,0,0,0-3.447-1.066H643.2a6.517,6.517,0,0,0-5.728,3.333,4.787,4.787,0,0,0,.6,5.237,63.389,63.389,0,0,0,7.45,7.893,2.188,2.188,0,0,0,2.872,0A63.386,63.386,0,0,0,655.833,771.5Zm-8.57,6.641-.309.276-.309-.276a62.14,62.14,0,0,1-7.2-7.631,3.179,3.179,0,0,1-.444-3.526,4.845,4.845,0,0,1,4.236-2.4,4.3,4.3,0,0,1,3.721,2.114,4.3,4.3,0,0,1,3.72-2.114h0a4.844,4.844,0,0,1,4.235,2.4,3.174,3.174,0,0,1-.439,3.521A62.108,62.108,0,0,1,647.263,778.143Z" transform="translate(-636.954 -762.923)"/></svg>