<svg xmlns="http://www.w3.org/2000/svg" width="24" height="24" viewBox="0 0 24 24"><defs><style>.a{fill:none;}.b{fill:#565a5e;}</style></defs><rect class="a" width="24" height="24"/><path class="b" d="M1102.448,576.616a6.518,6.518,0,0,0-5.685-3.329h-.445a5.919,5.919,0,0,0-3.11,1.061l-.238.167-.239-.167a5.868,5.868,0,0,0-3.386-1.07h-.15a6.535,6.535,0,0,0-5.7,3.342,4.8,4.8,0,0,0,.6,5.26,63.282,63.282,0,0,0,7.418,7.853,2.234,2.234,0,0,0,2.923,0,63.119,63.119,0,0,0,7.406-7.84A4.8,4.8,0,0,0,1102.448,576.616Zm-9.476,12.057-.274-.245a61.97,61.97,0,0,1-7.159-7.583,3.093,3.093,0,0,1-.438-3.447,4.782,4.782,0,0,1,4.119-2.362h.072a4.242,4.242,0,0,1,3.641,2.078l.043.073.043-.073a4.247,4.247,0,0,1,3.644-2.078h.068a4.781,4.781,0,0,1,4.117,2.359,3.091,3.091,0,0,1-.431,3.447,61.927,61.927,0,0,1-7.086,7.512h0Z" transform="translate(-1080.973 -569.278)"/></svg>