<svg xmlns="http://www.w3.org/2000/svg" width="20" height="20" viewBox="0 0 20 20"><defs><style>.a{fill:#565a5e;}</style></defs><path class="a" d="M920.619,431.175a.939.939,0,0,0-.937.937v4.532a.937.937,0,0,0,1.874,0v-4.532A.938.938,0,0,0,920.619,431.175Zm0-4.531a.936.936,0,1,0,.937.936A.938.938,0,0,0,920.619,426.644Zm0-4.532a10,10,0,1,0,10,10A10.011,10.011,0,0,0,920.619,422.112Zm0,18.127h0a8.127,8.127,0,1,1,8.126-8.127A8.137,8.137,0,0,1,920.619,440.239Z" transform="translate(-910.619 -422.112)"/></svg>