<svg xmlns="http://www.w3.org/2000/svg" width="16" height="20" viewBox="0 0 16 20"><defs><style>.a{fill:#565a5e;}</style></defs><path class="a" d="M744.224,418.937h0a.882.882,0,0,0-.2-.289l-3-2.931a.929.929,0,0,0-1.3,0,.871.871,0,0,0-.008,1.247l1.458,1.426h-6.3a.89.89,0,1,0,0,1.78h6.3l-1.452,1.419a.872.872,0,0,0-.006,1.246.928.928,0,0,0,1.3.008l3.008-2.934a.886.886,0,0,0,.2-.971Zm-7.908-5.7a5.069,5.069,0,1,0-5.188-5.046,4.924,4.924,0,0,0,1.417,3.463l.457.468-.577.311a7.791,7.791,0,0,0-4.132,6.841.916.916,0,0,0,1.831,0,6.119,6.119,0,0,1,6.152-6.034A.254.254,0,0,0,736.316,413.241Zm-3.358-5.042a3.238,3.238,0,0,1,.959-2.331,3.335,3.335,0,0,1,2.351-.981h.026a3.287,3.287,0,1,1,.027,6.573h-.011A3.314,3.314,0,0,1,732.958,408.2Z" transform="translate(-728.293 -403.105)"/></svg>