<svg xmlns="http://www.w3.org/2000/svg" width="24" height="24" viewBox="0 0 24 24"><defs><style>.a{fill:none;}.b{fill:#565a5e;}</style></defs><rect class="a" width="24" height="24"/><path class="b" d="M799.821,418.388h-6.3l1.451-1.419a.875.875,0,0,0,0-1.252.927.927,0,0,0-1.3,0l-3.006,2.934a.884.884,0,0,0-.2.289h0a.853.853,0,0,0,0,.68.879.879,0,0,0,.2.291l3,2.931a.925.925,0,0,0,1.295,0,.874.874,0,0,0,0-1.253l-1.451-1.42h6.3a.89.89,0,1,0,0-1.78Zm2.452-5.952-.578-.311.457-.468a4.921,4.921,0,0,0,1.418-3.463,5.167,5.167,0,1,0-5.168,5.04h.018a6.119,6.119,0,0,1,6.153,6.032.915.915,0,0,0,1.83,0A7.793,7.793,0,0,0,802.273,412.436Zm-3.861-.976h-.01a3.355,3.355,0,0,1-2.376-.981,3.235,3.235,0,0,1-.958-2.331,3.336,3.336,0,1,1,3.344,3.312Z" transform="translate(-786.403 -401.105)"/></svg>