<svg xmlns="http://www.w3.org/2000/svg" width="24" height="24" viewBox="0 0 24 24"><defs><style>.a{fill:none;}.b{fill:#565a5e;}</style></defs><rect class="a" width="24" height="24"/><path class="b" d="M616.756,565.59l-4.987-4.987.208-.313a6.008,6.008,0,1,0-1.7,1.7l.314-.208,4.986,4.987a.85.85,0,0,0,1.173,0,.828.828,0,0,0,0-1.175Zm-9.772-4.27a4.329,4.329,0,1,1,4.329-4.329A4.334,4.334,0,0,1,606.984,561.32ZM594,554h4a1,1,0,1,0,0-2h-4a1,1,0,1,0,0,2Zm0,7h4a1,1,0,1,0,0-2h-4a1,1,0,1,0,0,2Zm13,5H594a1,1,0,1,0,0,2h13a1,1,0,1,0,0-2Z" transform="translate(-593 -547)"/></svg>