<svg xmlns="http://www.w3.org/2000/svg" width="20.999" height="17" viewBox="0 0 20.999 17"><defs><style>.a{fill:#565a5e;stroke:rgba(0,0,0,0);stroke-miterlimit:10;}</style></defs><g transform="translate(0.5 0.5)"><path class="a" d="M9144,2584c0-4.418,4.476-8,10-8s10,3.583,10,8-4.478,8-10,8S9144,2588.418,9144,2584Zm2,0c0,3.307,3.59,6,8,6s8-2.693,8-6-3.588-6-8-6S9146,2580.693,9146,2584Zm7.994,2.93a3.091,3.091,0,0,1-.883-.129l-.048-.016a2.918,2.918,0,0,1-1.933-3.647,1.489,1.489,0,0,0,.75.734,1.516,1.516,0,0,0,1.982-.734l.014-.037a1.45,1.45,0,0,0-.766-1.9,3.031,3.031,0,0,1,.874-.129c.053,0,.105,0,.161,0a2.931,2.931,0,0,1-.075,5.861Z" transform="translate(-9144.001 -2575.999)"/></g></svg>