<svg xmlns="http://www.w3.org/2000/svg" width="24" height="24" viewBox="0 0 24 24"><defs><style>.a{fill:none;}.b{fill:#565a5e;}</style></defs><rect class="a" width="24" height="24"/><path class="b" d="M13.448,0l.809,4.063,3.6-1.884L16.869,6.2,20.911,6.1,18.319,9.287,22,11l-3.681,1.713L20.911,15.9,16.869,15.8l.989,4.02-3.6-1.884L13.448,22,11,18.7,8.552,22l-.809-4.063-3.6,1.884.989-4.02L1.089,15.9l2.592-3.182L0,11,3.681,9.287,1.089,6.1,5.131,6.2l-.989-4.02,3.6,1.884L8.552,0,11,3.3Z" transform="translate(1 1)"/></svg>