<svg xmlns="http://www.w3.org/2000/svg" width="24" height="24" viewBox="0 0 24 24"><defs><style>.a{fill:none;}.b{fill:#565a5e;}</style></defs><rect class="a" width="24" height="24"/><path class="b" d="M689.818,569.058a10,10,0,1,0,10,10A10.011,10.011,0,0,0,689.818,569.058Zm0,18.127h0a8.126,8.126,0,1,1,8.127-8.127A8.135,8.135,0,0,1,689.818,587.185Zm-.056-5.489a.843.843,0,1,0,.843.843A.844.844,0,0,0,689.763,581.7Zm.058-6.962a2.393,2.393,0,0,0-1.754.7,2.593,2.593,0,0,0-.749,1.772.224.224,0,0,0,.191.232l1.113.169a.224.224,0,0,0,.255-.184c.174-.995.643-1.11.981-1.11a.79.79,0,0,1,.824.824.778.778,0,0,1-.088.382,4.386,4.386,0,0,1-.651.728,3.236,3.236,0,0,0-.746,1,3.081,3.081,0,0,0-.2,1.193l.005.338a.225.225,0,0,0,.225.221h1.1a.229.229,0,0,0,.161-.068.225.225,0,0,0,.064-.16,2.3,2.3,0,0,1,.066-.764,1.907,1.907,0,0,1,.428-.551,5.806,5.806,0,0,0,1.015-1.244,2.193,2.193,0,0,0,.252-1.023,2.369,2.369,0,0,0-.716-1.753A2.448,2.448,0,0,0,689.821,574.734Z" transform="translate(-677.818 -567.058)"/></svg>