<svg xmlns="http://www.w3.org/2000/svg" width="24" height="24" viewBox="0 0 24 24"><defs><style>.a{fill:none;}.b{fill:#565a5e;stroke:rgba(0,0,0,0);stroke-miterlimit:10;}</style></defs><rect class="a" width="24" height="24"/><path class="b" d="M9154,2590c-.062,0-6.271,0-7.814-.419a2.511,2.511,0,0,1-1.769-1.769,28.056,28.056,0,0,1,0-9.627,2.511,2.511,0,0,1,1.769-1.769c1.544-.414,7.752-.419,7.814-.419s6.271,0,7.813.419a2.5,2.5,0,0,1,1.769,1.769,27.927,27.927,0,0,1,0,9.627,2.5,2.5,0,0,1-1.769,1.769C9160.271,2590,9154.063,2590,9154,2590Zm-2.047-9.957h0v5.911l5.227-2.955-5.227-2.955Z" transform="translate(-9142.001 -2570.999)"/></svg>