<svg xmlns="http://www.w3.org/2000/svg" width="24" height="24" viewBox="0 0 24 24"><path fill="none" d="M0 0h24v24H0z"/><path d="M16.503 9.492a2.522 2.522 0 01-3-1.2 2.523 2.523 0 00-.762.118 2.491 2.491 0 00-2.23-1.35 2.549 2.549 0 00-.5.049V4.441a2.515 2.515 0 00-2.512-2.438 2.479 2.479 0 00-2.5 2.442V16.16a7 7 0 0014 0v-.4-3.826a2.479 2.479 0 00-2.496-2.442zm.96 6.655a5.465 5.465 0 01-10.928.01V4.446a.953.953 0 01.963-.941.972.972 0 01.977.941v8.805a.536.536 0 001.071 0V9.502a.963.963 0 011.926 0v3.746a.535.535 0 001.069 0v-2.515a.967.967 0 011.926 0v2.511a.535.535 0 001.069 0v-1.321a.964.964 0 011.927 0z" fill="#565a5e"/></svg>