<svg xmlns="http://www.w3.org/2000/svg" width="24" height="24" viewBox="0 0 24 24"><path fill="none" d="M0 0h24v24H0z"/><path d="M23.174 9.299a5.7 5.7 0 00-4.771-2.578h-3.131v-.115A2.6 2.6 0 0012.687 4H2.581A2.6 2.6 0 00-.005 6.606v8.849a2.6 2.6 0 002.586 2.605h.168a3.247 3.247 0 006.315 0h6.439a3.246 3.246 0 006.313 0h.338a1.855 1.855 0 001.841-1.855V11.99a4.954 4.954 0 00-.821-2.691zm-4.518 4.715a3.229 3.229 0 00-3.18 2.656h-.487a2.617 2.617 0 00.3-1.214V8.127h1.638v2.746a1.826 1.826 0 001.811 1.828h3.874l-.006 3.516a.447.447 0 01-.443.45h-.3a3.23 3.23 0 00-3.181-2.655zm1.32 4.59a1.843 1.843 0 01-1.315.552 1.88 1.88 0 01-1.318-3.2 1.84 1.84 0 011.315-.552h.006a1.88 1.88 0 011.315 3.2zm2.033-8.537a3.482 3.482 0 01.517 1.228h-3.782a.427.427 0 01-.418-.423l-.012-2.727h.107a4.317 4.317 0 013.587 1.922zM5.903 14.014a3.231 3.231 0 00-3.181 2.656h-.141a1.2 1.2 0 01-1.2-1.206V6.606a1.208 1.208 0 011.2-1.2h10.1a1.208 1.208 0 011.2 1.2v8.867a1.2 1.2 0 01-1.2 1.2H9.094a3.23 3.23 0 00-3.181-2.655zm-.084 5.158a1.844 1.844 0 01-1.229-.542 1.889 1.889 0 01-.009-2.657 1.846 1.846 0 011.314-.556h.017a1.868 1.868 0 010 3.736z" fill="#565a5e"/></svg>