<svg xmlns="http://www.w3.org/2000/svg" width="24" height="24" viewBox="0 0 24 24"><path d="M10.329 21.801a1.98 1.98 0 00.792.195h.02a1.85 1.85 0 001.169-.421l2.679-2.269a1.617 1.617 0 00.591-1.238v-5.862l5.09-7.223a.873.873 0 00.061-.1 1.867 1.867 0 00.029-1.881 1.961 1.961 0 00-1.749-1.007H5.999A2.013 2.013 0 004.21 3.077a1.853 1.853 0 00.036 1.782l.069.127.01.014 5.091 7.226v8.118a1.636 1.636 0 00.913 1.457zm-4.387-17.9h13.112l-5.4 7.679a.3.3 0 00-.054.16v6.211l-2.21 1.856v-8.086a.158.158 0 00-.035-.112z" fill="#565a5e"/><path fill="none" d="M0 0h24v24H0z"/></svg>