<svg xmlns="http://www.w3.org/2000/svg" width="24" height="24" viewBox="0 0 24 24"><path fill="none" d="M0 0h24v24H0z"/><path d="M12.653 2.023a10 10 0 10-1.3 19.958c.222.015.445.022.666.022a10 10 0 009.965-9.349 10.31 10.31 0 000-1.306 10.043 10.043 0 00-9.331-9.325zm-6.06 10.823a17.163 17.163 0 00.51 3.545 7.825 7.825 0 00-1.665.714 8.316 8.316 0 01-1.712-4.259zm.509-5.223a17.222 17.222 0 00-.508 3.538H3.728a8.321 8.321 0 011.694-4.24 8.147 8.147 0 001.68.702zm.5-1.609a7.021 7.021 0 01-.963-.365 8.3 8.3 0 011.688-1.1 8.157 8.157 0 00-.721 1.465zm3.552 2.235v2.911H8.281a15.585 15.585 0 01.478-3.162 18.665 18.665 0 002.398.252zm-1.852-1.87a5.111 5.111 0 011.851-2.446V6.56a17.254 17.254 0 01-1.847-.181zm1.851 6.467v2.911a18.035 18.035 0 00-2.4.254 15.5 15.5 0 01-.479-3.167zm-3.548 5.155a8.516 8.516 0 00.726 1.461 8.31 8.31 0 01-1.675-1.093 6.488 6.488 0 01.953-.368zm3.548-.556v2.627a5.094 5.094 0 01-1.849-2.445 16.862 16.862 0 011.852-.182zm6.244-6.283a17.327 17.327 0 00-.507-3.539 8.137 8.137 0 001.675-.7 8.32 8.32 0 011.694 4.24zm-2.71 6.468a5.107 5.107 0 01-1.849 2.444v-2.628a16.753 16.753 0 011.853.184zm-1.849-6.469V8.249a18.674 18.674 0 002.4-.25 15.55 15.55 0 01.479 3.162zm3.552-5.148a8.557 8.557 0 00-.73-1.47 8.319 8.319 0 011.691 1.1 6.955 6.955 0 01-.958.37zm-.677 6.833a15.567 15.567 0 01-.48 3.167 18.056 18.056 0 00-2.4-.254v-2.912zm1.628 5.526a8.354 8.354 0 01-1.676 1.094 8.562 8.562 0 00.727-1.462 6.73 6.73 0 01.949.368zm-4.5-11.813V3.932A5.106 5.106 0 0114.69 6.38a17.214 17.214 0 01-1.849.18zm4.053 9.831a17.258 17.258 0 00.51-3.545h2.867a8.319 8.319 0 01-1.71 4.259 7.9 7.9 0 00-1.667-.713z" fill="#565a5e"/></svg>