<svg xmlns="http://www.w3.org/2000/svg" width="24" height="24" viewBox="0 0 24 24"><path fill="none" d="M0 0h24v24H0z"/><path d="M23.997 11.703a.9.9 0 00-.308-.616l-.013-.011-10.57-8.874c.026.019-.021-.005-.053-.02a1.527 1.527 0 00-.218-.122 1.058 1.058 0 00-.154-.04.811.811 0 00-.35 0 .921.921 0 00-.178.047 1.1 1.1 0 00-.154.085l-.1.052-10.57 8.874a.9.9 0 00-.117 1.267.949.949 0 001.332.117l2.594-2.179v10.809a.893.893 0 00.927.91h12.874a.979.979 0 00.656-.264.909.909 0 00.275-.647v-10.81l2.6 2.181a.943.943 0 001.317-.107.891.891 0 00.21-.652zm-5.994 8.472H6.997V8.711l5.5-4.619 5.5 4.619z" fill="#565a5e"/></svg>