<svg xmlns="http://www.w3.org/2000/svg" width="24" height="24" viewBox="0 0 24 24"><path fill="none" d="M0 0h24v24H0z"/><path d="M11.633 22c-.832 0-1.511-.012-2.145-.036-.238 0-.482-.014-.716-.02a10.89 10.89 0 01-2.5-.246 5.088 5.088 0 01-4.016-4.1 12.355 12.355 0 01-.23-2.358c-.022-.744-.022-1.5-.022-2.242V11.14c0-.724-.016-1.472.018-2.2 0-.158.014-.316.02-.474a9.575 9.575 0 01.332-2.536A5.129 5.129 0 016.43 2.248a11.7 11.7 0 012.371-.206h.374c.975-.032 1.945-.044 2.889-.044s1.841.012 2.735.034h.388a8.715 8.715 0 013.454.552 5.148 5.148 0 013.154 4.36 47.015 47.015 0 01.168 6.3c-.01.6-.022 1.2-.026 1.8a8.78 8.78 0 01-.542 3.614 5.121 5.121 0 01-3.894 3.086 16.9 16.9 0 01-3.262.236h-1.011c-.527.02-1.065.02-1.595.02zm.586-18.164H8.657A9.622 9.622 0 006.93 4a3.336 3.336 0 00-2.893 2.75 8.169 8.169 0 00-.2 1.684c-.01 1.33-.012 2.684-.012 4v2.294a12.883 12.883 0 00.168 2.354 3.329 3.329 0 002.3 2.762 6.857 6.857 0 002.217.318c.94 0 1.937.01 3.236.01h3.528a10.216 10.216 0 001.727-.16 3.331 3.331 0 002.947-2.826 9.386 9.386 0 00.182-1.646c.018-.818.016-1.62.012-2.638v-1.5c-.01-.33 0-.716 0-1.126a20.085 20.085 0 00-.15-3.36 3.437 3.437 0 00-2.5-2.82 8.406 8.406 0 00-2.071-.256c-.939-.002-1.957-.004-3.202-.004zm-.108 13.254h-.283a4.963 4.963 0 01-3.49-1.464 5.153 5.153 0 013.49-8.751h.173a5.036 5.036 0 015.1 4.967v.175a5 5 0 01-4.921 5.076h-.069zm-.112-8.416a3.35 3.35 0 00-3.336 3.26 3.4 3.4 0 00.982 2.436 3.278 3.278 0 002.341.962A3.328 3.328 0 0012 8.676zm5.3-.8a1.17 1.17 0 01-.826-.364 1.228 1.228 0 01-.362-.868 1.2 1.2 0 012.041-.816 1.224 1.224 0 01.332.88 1.165 1.165 0 01-1.156 1.169h-.026z" fill="#565a5e"/></svg>