<svg xmlns="http://www.w3.org/2000/svg" width="24" height="24" viewBox="0 0 24 24"><path fill="none" d="M0 0h24v24H0z"/><path d="M12 6.745a2.26 2.26 0 102.229 2.261A2.247 2.247 0 0012 6.745zM12.058 1h-.116a9.017 9.017 0 00-8.94 8.992c0 3.885 2.353 7.529 7.407 11.463a2.6 2.6 0 003.185 0c5.054-3.935 7.407-7.578 7.407-11.464A9.019 9.019 0 0012.058 1zm.47 19.042a.863.863 0 01-1.05 0C6.952 16.52 4.752 13.229 4.752 9.981a7.252 7.252 0 1114.5 0c.001 3.248-2.199 6.538-6.724 10.061z" fill="#565a5e"/></svg>