<svg xmlns="http://www.w3.org/2000/svg" width="24" height="24" viewBox="0 0 24 24"><path fill="none" d="M0 0h24v24H0z"/><path d="M13.418 17.283h-6.3l1.451-1.419a.875.875 0 000-1.252.927.927 0 00-1.3 0l-3.006 2.934a.884.884 0 00-.2.289.853.853 0 000 .68.879.879 0 00.2.291l3 2.931a.925.925 0 001.295 0 .874.874 0 000-1.253l-1.451-1.42h6.3a.89.89 0 100-1.78zm2.452-5.952l-.578-.311.457-.468a4.921 4.921 0 001.418-3.463 5.167 5.167 0 10-5.168 5.04h.018a6.119 6.119 0 016.153 6.032.915.915 0 001.83 0 7.793 7.793 0 00-4.13-6.83zm-3.861-.976h-.01a3.355 3.355 0 01-2.376-.981 3.235 3.235 0 01-.958-2.331 3.336 3.336 0 113.344 3.312z" fill="#565a5e"/></svg>