<svg xmlns="http://www.w3.org/2000/svg" width="24" height="24" viewBox="0 0 24 24"><path fill="none" d="M0 0h24v24H0z"/><path d="M19.931 17.832a.882.882 0 00-.2-.289l-3-2.931a.929.929 0 00-1.3 0 .871.871 0 00-.008 1.247l1.458 1.426h-6.3a.89.89 0 100 1.78h6.3l-1.452 1.419a.872.872 0 00-.006 1.246.928.928 0 001.3.008l3.008-2.934a.886.886 0 00.2-.971zm-7.908-5.7a5.069 5.069 0 10-5.188-5.046 4.924 4.924 0 001.417 3.463l.457.468-.577.311A7.791 7.791 0 004 18.169a.916.916 0 001.831 0 6.119 6.119 0 016.152-6.034.254.254 0 00.04.001zM8.665 7.09a3.238 3.238 0 01.959-2.331 3.335 3.335 0 012.351-.981h.026a3.287 3.287 0 11.027 6.573h-.011a3.314 3.314 0 01-3.352-3.256z" fill="#565a5e"/></svg>