<svg xmlns="http://www.w3.org/2000/svg" width="24" height="24" viewBox="0 0 24 24"><path fill="none" d="M0 0h24v24H0z"/><path d="M19.071 6.121l1.414-1.414a1 1 0 00-1.414-1.414l-1.73 1.73A11.822 11.822 0 0012 3.778c-5.523 0-10 3.582-10 8a7.276 7.276 0 002.929 5.657l-1.414 1.414a1 1 0 001.414 1.414l1.73-1.73A11.822 11.822 0 0012 19.778c5.523 0 10-3.582 10-8a7.276 7.276 0 00-2.929-5.657zM4 11.778c0-3.308 3.589-6 8-6a10.108 10.108 0 013.845.741l-2.583 2.583a2.91 2.91 0 00-1.118-.254h-.16a3.043 3.043 0 00-.874.129 1.446 1.446 0 01.876 1.4l-1.391 1.392a1.5 1.5 0 01-.715-.12 1.483 1.483 0 01-.75-.733 2.9 2.9 0 00.176 2.141l-2.961 2.961A5.359 5.359 0 014 11.778zm8 6a10.108 10.108 0 01-3.845-.741l2.6-2.6a2.67 2.67 0 00.306.129l.048.014a3.069 3.069 0 00.883.13 2.931 2.931 0 003.005-2.855 2.886 2.886 0 00-.307-1.353l2.963-2.962A5.359 5.359 0 0120 11.778c0 3.308-3.589 6-8 6z" fill="#565a5e"/></svg>