<svg xmlns="http://www.w3.org/2000/svg" width="24" height="24" viewBox="0 0 24 24"><path fill="none" d="M0 0h24v24H0z"/><path d="M1.999 12.001c0-4.418 4.476-8 10-8s10 3.583 10 8-4.478 8-10 8-10-3.582-10-8zm2 0c0 3.307 3.59 6 8 6s8-2.693 8-6-3.588-6-8-6-8 2.693-8 6zm7.994 2.93a3.091 3.091 0 01-.883-.129l-.048-.016a2.918 2.918 0 01-1.933-3.647 1.489 1.489 0 00.75.734 1.516 1.516 0 001.982-.734l.014-.037a1.45 1.45 0 00-.766-1.9 3.031 3.031 0 01.874-.129h.161a2.931 2.931 0 01-.075 5.861z" fill="#565a5e" stroke="transparent" stroke-miterlimit="10"/></svg>