<svg xmlns="http://www.w3.org/2000/svg" width="24" height="24" viewBox="0 0 24 24"><defs><style>.a{fill:none}.c{stroke:#565a5e;stroke-width:1.7px;fill:#fff;stroke-linecap:round;stroke-linejoin:round}</style></defs><path class="a" d="M0 0h24v24H0z"/><g transform="translate(2 3)" stroke-miterlimit="10" stroke="#565a5e" stroke-width="1.7" fill="none"><circle cx="10" cy="10" r="10" stroke="none"/><circle class="a" cx="10" cy="10" r="9.15"/></g><path class="c" d="M6.462 12.331a2.154 2.154 0 012.206-1.2c1.794 0 1.794 1.2 1.794 1.2M18.061 12.331a2.153 2.153 0 00-2.206-1.2c-1.794 0-1.794 1.2-1.794 1.2M8.6 16.8a4.638 4.638 0 003.6 1.6 3.91 3.91 0 003.364-1.6M11.6 1a2.93 2.93 0 012.6 3 1.784 1.784 0 01-2 2 1.817 1.817 0 01-2-1.6c0-1 1.234-1.9 2-1.133"/></svg>