<svg xmlns="http://www.w3.org/2000/svg" width="24" height="24" viewBox="0 0 24 24"><path fill="none" d="M0 0h24v24H0z"/><path d="M15.848 19.839a1.581 1.581 0 101.574 1.581 1.577 1.577 0 00-1.574-1.581zm-7.448 0a1.577 1.577 0 00-1.574 1.581 1.578 1.578 0 001.569 1.581 1.581 1.581 0 000-3.161zm6.3-15.143l-6.386.024V3.291A2.29 2.29 0 006.033 1H3.941a.945.945 0 000 1.889h2.091a.4.4 0 01.4.39V16.46a2.289 2.289 0 002.281 2.292h5.861a7.259 7.259 0 005.126-2.17 6.988 6.988 0 00-5-11.887zm3.662 10.559a5.368 5.368 0 01-3.789 1.607H8.715a.4.4 0 01-.4-.4V6.609l6.392-.024a5.122 5.122 0 015.115 5.039 5.053 5.053 0 01-1.464 3.631z" fill="#565a5e"/></svg>