<svg xmlns="http://www.w3.org/2000/svg" width="24" height="24" viewBox="0 0 24 24"><path fill="none" d="M0 0h24v24H0z"/><path d="M7.316 20.819a9.959 9.959 0 0013.516-4.22 10.139 10.139 0 00-.228-9.853l-.092-.158a9.979 9.979 0 00-8.4-4.589 9.87 9.87 0 00-5.28 1.531 10.211 10.211 0 00-3.544 13.308l.076.146-1.319 3.768a.964.964 0 00-.051.312.939.939 0 00.932.935h.009a.872.872 0 00.256-.038l3.985-1.215zm-2.9-1.176l.83-2.389a.936.936 0 00-.076-.892 8.458 8.458 0 01-.126-8.807 8.163 8.163 0 0114.949 2.348 8.3 8.3 0 01-.963 6.259 8.173 8.173 0 01-7.007 3.97 8.063 8.063 0 01-4.231-1.2.912.912 0 00-.488-.146.667.667 0 00-.224.047z" fill="#565a5e"/></svg>