<svg xmlns="http://www.w3.org/2000/svg" width="24" height="24" viewBox="0 0 24 24"><path fill="none" d="M0 0h24v24H0z"/><path d="M1.962 6.949h1.347a3.1 3.1 0 005.845 0h12.885a.937.937 0 100-1.874H9.154a3.1 3.1 0 00-5.845 0H1.962a.937.937 0 100 1.874zM6.231 4.39a1.623 1.623 0 11-1.664 1.622A1.645 1.645 0 016.231 4.39zm15.808 7.173h-1.347a3.1 3.1 0 00-5.845 0H1.962a.937.937 0 100 1.874h12.885a3.1 3.1 0 005.845 0h1.347a.937.937 0 100-1.874zm-4.269 2.559a1.622 1.622 0 111.664-1.622 1.645 1.645 0 01-1.665 1.622zm4.269 3.929h-7.116a3.1 3.1 0 00-5.845 0H1.962a.937.937 0 100 1.874H9.08a3.1 3.1 0 005.845 0h7.116a.937.937 0 100-1.874zM12 20.61a1.623 1.623 0 111.664-1.622A1.645 1.645 0 0112 20.61z" fill="#565a5e"/></svg>