<svg xmlns="http://www.w3.org/2000/svg" width="24" height="24" viewBox="0 0 24 24"><path fill="none" d="M0 0h24v24H0z"/><path d="M19.449 19.635v-6.9a.354.354 0 01.257-.335 1.793 1.793 0 001.295-1.705V9.153a1.847 1.847 0 00-1.882-1.8h-2.436a.375.375 0 01-.341-.21.341.341 0 01.065-.38 2.991 2.991 0 00.841-2.083 2.769 2.769 0 00-2.837-2.684h-.125a3.073 3.073 0 00-2.027.746.386.386 0 01-.5 0 3.121 3.121 0 00-2.02-.748 2.976 2.976 0 00-2.055.7 2.611 2.611 0 00-.92 1.862v.118a3 3 0 00.841 2.085.337.337 0 01.065.379.375.375 0 01-.341.21H4.892a1.848 1.848 0 00-1.88 1.795v1.543a1.793 1.793 0 001.3 1.705.355.355 0 01.257.335v6.88a2.294 2.294 0 00.7 1.676 2.521 2.521 0 001.735.709h10.015a2.411 2.411 0 002.43-2.356zm-8.16.641a.363.363 0 01-.373.353H6.999a1.056 1.056 0 01-.73-.3.94.94 0 01-.284-.694v-6.788a.364.364 0 01.373-.353h4.561a.363.363 0 01.373.353zm0-9.509a.363.363 0 01-.373.353H4.884a.441.441 0 01-.45-.408l.079-1.647a.364.364 0 01.372-.337h6.034a.363.363 0 01.373.353zm0-4.216a.345.345 0 01-.141.277.386.386 0 01-.232.076.427.427 0 01-.085-.008q-.437-.1-.859-.219c-.5-.154-1.788-.81-1.788-1.992a1.387 1.387 0 011.455-1.319.67.67 0 01.141.01 1.516 1.516 0 011.508 1.456zm1.43-1.712a1.534 1.534 0 011.551-1.466 1.44 1.44 0 011.013.287 1.33 1.33 0 01.532.906l.008.11c-.007 1.153-1.2 1.8-1.724 1.983a.5.5 0 01-.057.022 18.04 18.04 0 01-.86.219.416.416 0 01-.09.01.388.388 0 01-.23-.075.349.349 0 01-.143-.278zm-.006 4.247a.346.346 0 01.11-.251.461.461 0 01.267-.1l6.109.068a.364.364 0 01.369.353v1.541a.347.347 0 01-.112.253l-.077.071a.385.385 0 01-.261.1h-6.033a.363.363 0 01-.373-.353zm5.3 10.548a.933.933 0 01-.284.687 1.04 1.04 0 01-.667.3.372.372 0 01-.057 0h-3.923a.363.363 0 01-.373-.353v-7.425a.363.363 0 01.373-.353h4.558a.363.363 0 01.373.353z" fill="#565a5e"/></svg>