<svg xmlns="http://www.w3.org/2000/svg" width="24" height="24" viewBox="0 0 24 24"><path fill="none" d="M0 0h24v24H0z"/><path d="M21.475 7.338a6.518 6.518 0 00-5.685-3.329h-.445a5.919 5.919 0 00-3.11 1.061l-.238.167-.239-.167A5.868 5.868 0 008.372 4h-.15a6.535 6.535 0 00-5.7 3.342 4.8 4.8 0 00.6 5.26 63.282 63.282 0 007.418 7.853 2.234 2.234 0 002.923 0 63.119 63.119 0 007.406-7.84 4.8 4.8 0 00.606-5.277zm-9.476 12.057l-.274-.245a61.97 61.97 0 01-7.159-7.583 3.093 3.093 0 01-.438-3.447 4.782 4.782 0 014.119-2.362h.072a4.242 4.242 0 013.641 2.078l.043.073.043-.073a4.247 4.247 0 013.644-2.078h.068a4.781 4.781 0 014.117 2.359 3.091 3.091 0 01-.431 3.447 61.927 61.927 0 01-7.086 7.512z" fill="#565a5e"/></svg>