<svg xmlns="http://www.w3.org/2000/svg" width="24" height="24" viewBox="0 0 24 24"><path fill="none" d="M0 0h24v24H0z"/><path d="M21.692 6.649a.841.841 0 00-.076-.169 1.754 1.754 0 00-.045-.1.14.14 0 01-.056-.043 1.138 1.138 0 00-.3-.22.91.91 0 00-.168-.061.821.821 0 00-.2-.037.745.745 0 00-.1-.02H2.987a.589.589 0 00-.066.015 1 1 0 00-.213.039 1.053 1.053 0 00-.179.065 1.193 1.193 0 00-.147.093.88.88 0 00-.146.132.362.362 0 01-.05.046l-.02.027a.281.281 0 01-.031.068.925.925 0 00-.075.166.825.825 0 00-.038.177c-.011.049-.018.077-.022.108v10.4a.955.955 0 00.954.918h17.839a.956.956 0 00.957-.922V6.917c0-.013-.009-.042-.017-.07v-.022a.731.731 0 00-.041-.176zm-4.08 1.179l-5.736 3.7-.067-.043L6.14 7.831zm2.167 8.584h-15.8v-7.75l7.341 4.732a1.054 1.054 0 001.123 0l7.341-4.732z" fill="#565a5e"/></svg>