<svg xmlns="http://www.w3.org/2000/svg" width="24" height="24" viewBox="0 0 24 24"><path fill="none" d="M0 0h24v24H0z"/><path d="M8.364 2.983A3.382 3.382 0 005.971 2H5.95a3.373 3.373 0 00-3.015 1.831 7.911 7.911 0 00-.673 5.754c1.167 4.629 7.528 10.994 12.154 12.162a8.142 8.142 0 002.019.254 8.012 8.012 0 003.742-.94 3.417 3.417 0 001.426-4.616 3.346 3.346 0 00-.593-.809l-1.744-1.747a3.419 3.419 0 00-3.78-.716 4.932 4.932 0 00-1.143.692l-.243.2-.285-.134a7.663 7.663 0 01-3.743-3.745l-.136-.282.2-.245a4.866 4.866 0 00.7-1.152 3.39 3.39 0 00-.724-3.775zm5.206 12.741a1.615 1.615 0 001.675-.331 3.13 3.13 0 01.949-.626 1.648 1.648 0 011.832.359l1.732 1.739a1.65 1.65 0 01.471 1.425 1.677 1.677 0 01-.794 1.178l-.08.047a6.157 6.157 0 01-4.516.535c-3.983-1-9.884-6.909-10.886-10.9a6.125 6.125 0 01.533-4.505 1.674 1.674 0 011.232-.875 1.643 1.643 0 011.425.47L8.88 5.978a1.654 1.654 0 01.357 1.832 3.085 3.085 0 01-.634.95 1.6 1.6 0 00-.325 1.672 9.157 9.157 0 005.292 5.292z" fill="#565a5e"/></svg>