<svg xmlns="http://www.w3.org/2000/svg" width="24" height="24" viewBox="0 0 24 24"><path fill="none" d="M0 0h24v24H0z"/><path d="M11.409 18.999V8.724l6.019-1.981 2.2-.787v-.593a.922.922 0 00-.031-.2l-.1-.28c.008.027-.005.008-.027-.024l-.065-.087a2.098 2.098 0 00-.08-.075l-.123-.067a.707.707 0 00-.167-.065L8.703 2.019a.7.7 0 00-.368.018L.359 4.624l-.154.116-.13.193a.617.617 0 00-.035.075l-.042 12.246a1.018 1.018 0 00.786 1.031l9.685 2.694a.663.663 0 00.174.024l.177-.01c-.028 0 .018-.012.062-.027l7.878-2.664a1.04 1.04 0 00.863-1.035v-.961l-1.9.564zm-1.528.057l-8.356-2.332V6.47l8.356 2.286zm.749-11.859L3.719 5.311l4.868-1.577 7.205 1.773zm13.312 3.877a.726.726 0 00-.162-.239l-3.643-3.534a.819.819 0 00-1.133 0 .726.726 0 00-.022 1.022l2.365 2.286h-4.443a.769.769 0 00-.8.722.749.749 0 00.721.779h4.51l-2.34 2.262a.726.726 0 00-.024 1.024.827.827 0 001.158.023l3.642-3.533a.782.782 0 00.169-.246.719.719 0 00.002-.566z" fill="#565a5e"/></svg>